<svg width="32" height="32" viewBox="0 0 32 32" fill="none" xmlns="http://www.w3.org/2000/svg">
  <circle cx="16" cy="16" r="15" fill="#FFF" stroke="#1a237e" stroke-width="2"/>
  <path d="M16 3C8.82 3 3 8.82 3 16C3 23.18 8.82 29 16 29C23.18 29 29 23.18 29 16C29 8.82 23.18 3 16 3ZM16 6C21.51 6 26 10.49 26 16C26 21.51 21.51 26 16 26C10.49 26 6 21.51 6 16C6 10.49 10.49 6 16 6Z" fill="#1a237e"/>
  <path d="M11 13H21V14H11V13ZM11 15H21V16H11V15ZM11 17H21V18H11V17ZM11 19H21V20H11V19Z" fill="#ffd700"/>
  <path d="M10 11L16 7L22 11H10Z" fill="#1a237e"/>
  <path d="M10.5 10.5H11.5V22.5H10.5V10.5ZM20.5 10.5H21.5V22.5H20.5V10.5Z" fill="#1a237e"/>
</svg>