<svg width="120" height="120" viewBox="0 0 120 120" fill="none" xmlns="http://www.w3.org/2000/svg">
  <circle cx="60" cy="60" r="56" fill="#FFF" stroke="#1a237e" stroke-width="8"/>
  <path d="M60 12C33.49 12 12 33.49 12 60C12 86.51 33.49 108 60 108C86.51 108 108 86.51 108 60C108 33.49 86.51 12 60 12ZM60 24C77.67 24 92 38.33 92 56C92 73.67 77.67 88 60 88C42.33 88 28 73.67 28 56C28 38.33 42.33 24 60 24Z" fill="#1a237e"/>
  <path d="M44 48H76V52H44V48ZM44 56H76V60H44V56ZM44 64H76V68H44V64ZM44 72H76V76H44V72Z" fill="#ffd700"/>
  <path d="M38 42L60 27L82 42H38Z" fill="#1a237e"/>
  <path d="M39 39H43V83H39V39ZM77 39H81V83H77V39Z" fill="#1a237e"/>
</svg>